<svg width="200" height="38" viewBox="0 0 200 38" fill="none" xmlns="http://www.w3.org/2000/svg">
<path d="M46.6359 1.80691H54.0518L60.9783 20.7418H61.0912L67.9424 1.80691H75.3959V28.4588H70.6904V7.03942H70.6151L62.5217 28.4588H59.209L51.2285 7.03942H51.1532V28.4588H46.6359V1.80691Z" fill="#27338B"/>
<path d="M81.1148 10.3897H85.6321V28.4588H81.1148V10.3897ZM80.4749 4.25377C80.4749 3.52598 80.7384 2.89858 81.2654 2.37157C81.8175 1.81946 82.5077 1.5434 83.3358 1.5434C84.164 1.5434 84.8541 1.80691 85.4062 2.33393C85.9835 2.83584 86.2721 3.47579 86.2721 4.25377C86.2721 5.03174 85.9835 5.68424 85.4062 6.21125C84.8541 6.71317 84.164 6.96413 83.3358 6.96413C82.5077 6.96413 81.8175 6.70062 81.2654 6.17361C80.7384 5.6215 80.4749 4.98155 80.4749 4.25377Z" fill="#27338B"/>
<path d="M109.482 10.3897V26.8401C109.482 28.4714 109.282 29.9395 108.88 31.2445C108.479 32.5746 107.851 33.6913 106.998 34.5948C106.17 35.5233 105.116 36.2386 103.836 36.7405C102.556 37.2424 101.038 37.4934 99.281 37.4934C98.5532 37.4934 97.7752 37.4306 96.9471 37.3051C96.144 37.1797 95.3409 36.9914 94.5378 36.7405C93.7599 36.4895 93.007 36.1758 92.2792 35.7994C91.5514 35.423 90.8989 34.9963 90.3217 34.5195L92.9192 31.0186C93.7975 31.8468 94.7888 32.4742 95.893 32.9008C96.9973 33.3525 98.114 33.5784 99.2433 33.5784C100.322 33.5784 101.226 33.4153 101.954 33.089C102.707 32.7879 103.296 32.3612 103.723 31.8091C104.175 31.257 104.488 30.6045 104.664 29.8516C104.865 29.0988 104.965 28.2706 104.965 27.3671V26.0496H104.89C104.237 26.928 103.397 27.6056 102.368 28.0824C101.364 28.5341 100.235 28.76 98.9798 28.76C97.6246 28.76 96.3949 28.509 95.2907 28.0071C94.1865 27.5052 93.2454 26.8276 92.4674 25.9743C91.7145 25.1211 91.1248 24.1298 90.6982 23.0004C90.2715 21.846 90.0582 20.6289 90.0582 19.349C90.0582 18.044 90.259 16.8143 90.6605 15.6599C91.0872 14.5055 91.6769 13.5016 92.4298 12.6484C93.2078 11.7951 94.1363 11.1175 95.2154 10.6156C96.3197 10.1137 97.5494 9.86271 98.9045 9.86271C100.184 9.86271 101.376 10.1262 102.481 10.6532C103.585 11.1803 104.463 11.9959 105.116 13.1001H105.191V10.3897H109.482ZM99.8456 13.5518C99.0175 13.5518 98.2771 13.7024 97.6246 14.0035C96.9973 14.3047 96.4577 14.7188 96.006 15.2458C95.5793 15.7477 95.2405 16.35 94.9896 17.0527C94.7637 17.7554 94.6508 18.5083 94.6508 19.3113C94.6508 20.0391 94.7637 20.7418 94.9896 21.4194C95.2405 22.097 95.5793 22.7118 96.006 23.264C96.4577 23.791 96.9973 24.2176 97.6246 24.5438C98.2771 24.8701 99.0049 25.0332 99.808 25.0332C100.636 25.0332 101.376 24.8826 102.029 24.5815C102.707 24.2552 103.271 23.8286 103.723 23.3016C104.2 22.7746 104.564 22.1723 104.815 21.4947C105.066 20.792 105.191 20.0642 105.191 19.3113C105.191 18.5334 105.066 17.793 104.815 17.0904C104.564 16.3877 104.2 15.7728 103.723 15.2458C103.271 14.7188 102.719 14.3047 102.067 14.0035C101.414 13.7024 100.674 13.5518 99.8456 13.5518Z" fill="#27338B"/>
<path d="M114.897 10.3897H119.226V13.4012H119.301C119.803 12.3472 120.506 11.4939 121.409 10.8415C122.313 10.189 123.367 9.86271 124.572 9.86271C124.747 9.86271 124.935 9.87526 125.136 9.90036C125.337 9.90036 125.513 9.92545 125.663 9.97565V14.1165C125.362 14.0412 125.099 13.991 124.873 13.9659C124.672 13.9408 124.471 13.9283 124.27 13.9283C123.241 13.9283 122.413 14.1165 121.786 14.4929C121.158 14.8694 120.669 15.3211 120.318 15.8481C119.966 16.3751 119.728 16.9147 119.603 17.4668C119.477 18.0189 119.414 18.4581 119.414 18.7843V28.4588H114.897V10.3897Z" fill="#27338B"/>
<path d="M139.349 26.1625H139.236C138.784 26.9656 138.057 27.6307 137.053 28.1577C136.049 28.6596 134.907 28.9105 133.627 28.9105C132.899 28.9105 132.134 28.8102 131.331 28.6094C130.553 28.4337 129.825 28.1326 129.148 27.7059C128.495 27.2542 127.943 26.677 127.491 25.9743C127.065 25.2465 126.851 24.3556 126.851 23.3016C126.851 21.9464 127.228 20.8673 127.981 20.0642C128.759 19.2612 129.75 18.6463 130.955 18.2197C132.159 17.793 133.489 17.517 134.945 17.3915C136.425 17.2409 137.868 17.1656 139.274 17.1656V16.7139C139.274 15.5846 138.86 14.7564 138.032 14.2294C137.229 13.6773 136.262 13.4012 135.133 13.4012C134.179 13.4012 133.263 13.602 132.385 14.0035C131.507 14.4051 130.779 14.8945 130.202 15.4717L127.868 12.7237C128.897 11.77 130.076 11.0548 131.406 10.5779C132.761 10.1011 134.129 9.86271 135.509 9.86271C137.116 9.86271 138.433 10.0886 139.462 10.5403C140.516 10.992 141.344 11.5818 141.947 12.3096C142.549 13.0374 142.963 13.853 143.189 14.7564C143.44 15.6599 143.565 16.5633 143.565 17.4668V28.4588H139.349V26.1625ZM139.274 20.2148H138.257C137.53 20.2148 136.764 20.2524 135.961 20.3277C135.158 20.3779 134.418 20.5159 133.74 20.7418C133.063 20.9426 132.498 21.2437 132.046 21.6453C131.594 22.0217 131.369 22.5487 131.369 23.2263C131.369 23.6529 131.456 24.0168 131.632 24.318C131.833 24.594 132.084 24.8199 132.385 24.9956C132.686 25.1712 133.025 25.2967 133.401 25.372C133.778 25.4473 134.154 25.4849 134.531 25.4849C136.087 25.4849 137.266 25.0709 138.069 24.2427C138.872 23.4145 139.274 22.2852 139.274 20.8547V20.2148Z" fill="#27338B"/>
<path d="M148.903 10.3897H153.421V28.4588H148.903V10.3897ZM148.263 4.25377C148.263 3.52598 148.527 2.89858 149.054 2.37157C149.606 1.81946 150.296 1.5434 151.124 1.5434C151.953 1.5434 152.643 1.80691 153.195 2.33393C153.772 2.83584 154.061 3.47579 154.061 4.25377C154.061 5.03174 153.772 5.68424 153.195 6.21125C152.643 6.71317 151.953 6.96413 151.124 6.96413C150.296 6.96413 149.606 6.70062 149.054 6.17361C148.527 5.6215 148.263 4.98155 148.263 4.25377Z" fill="#27338B"/>
<path d="M177.271 28.4588H172.98V25.7485H172.904C172.277 26.8025 171.399 27.6056 170.269 28.1577C169.165 28.7098 167.973 28.9858 166.693 28.9858C165.313 28.9858 164.071 28.7349 162.966 28.233C161.887 27.7059 160.959 27.0158 160.181 26.1625C159.428 25.2842 158.838 24.2678 158.411 23.1134C158.01 21.9339 157.809 20.6791 157.809 19.349C157.809 18.0189 158.022 16.7767 158.449 15.6222C158.876 14.4678 159.478 13.464 160.256 12.6107C161.034 11.7575 161.962 11.0924 163.042 10.6156C164.121 10.1137 165.3 9.86271 166.58 9.86271C167.408 9.86271 168.149 9.9631 168.801 10.1639C169.454 10.3395 170.018 10.5654 170.495 10.8415C170.997 11.1175 171.424 11.4187 171.775 11.7449C172.126 12.0712 172.415 12.3849 172.641 12.686H172.754V0H177.271V28.4588ZM162.402 19.349C162.402 20.0517 162.502 20.7544 162.703 21.457C162.929 22.1597 163.255 22.7871 163.682 23.3392C164.108 23.8914 164.648 24.3431 165.3 24.6944C165.953 25.0458 166.718 25.2214 167.597 25.2214C168.425 25.2214 169.165 25.0583 169.817 24.7321C170.47 24.3807 171.022 23.929 171.474 23.3769C171.951 22.8248 172.302 22.2099 172.528 21.5323C172.779 20.8296 172.904 20.127 172.904 19.4243C172.904 18.7216 172.779 18.0189 172.528 17.3162C172.302 16.6135 171.951 15.9861 171.474 15.434C171.022 14.8819 170.47 14.4302 169.817 14.0788C169.165 13.7275 168.425 13.5518 167.597 13.5518C166.718 13.5518 165.953 13.7275 165.3 14.0788C164.648 14.4051 164.108 14.8443 163.682 15.3964C163.255 15.9485 162.929 16.5759 162.703 17.2786C162.502 17.9562 162.402 18.6463 162.402 19.349Z" fill="#27338B"/>
<path d="M195.483 17.6174C195.483 17.0402 195.395 16.488 195.219 15.961C195.069 15.434 194.818 14.9697 194.466 14.5682C194.115 14.1667 193.663 13.853 193.111 13.6271C192.584 13.3761 191.957 13.2507 191.229 13.2507C189.874 13.2507 188.719 13.6648 187.766 14.4929C186.837 15.296 186.323 16.3375 186.222 17.6174H195.483ZM200 19.6501C200 19.8509 200 20.0517 200 20.2524C200 20.4532 199.987 20.654 199.962 20.8547H186.222C186.273 21.5072 186.436 22.1095 186.712 22.6617C187.013 23.1887 187.402 23.6529 187.879 24.0545C188.355 24.4309 188.895 24.7321 189.497 24.9579C190.1 25.1838 190.727 25.2967 191.38 25.2967C192.509 25.2967 193.462 25.096 194.24 24.6944C195.018 24.2678 195.658 23.6906 196.16 22.9628L199.172 25.372C197.39 27.7812 194.805 28.9858 191.417 28.9858C190.012 28.9858 188.719 28.7725 187.54 28.3459C186.36 27.8942 185.331 27.2668 184.453 26.4637C183.6 25.6606 182.922 24.6819 182.42 23.5275C181.943 22.348 181.705 21.0179 181.705 19.5372C181.705 18.0816 181.943 16.7641 182.42 15.5846C182.922 14.38 183.6 13.3636 184.453 12.5354C185.306 11.6822 186.31 11.0297 187.465 10.5779C188.644 10.1011 189.911 9.86271 191.267 9.86271C192.521 9.86271 193.676 10.076 194.73 10.5027C195.809 10.9042 196.738 11.519 197.516 12.3472C198.293 13.1503 198.896 14.1667 199.322 15.3964C199.774 16.601 200 18.0189 200 19.6501Z" fill="#27338B"/>
<path d="M16.1526 2.239H21.9317L5.7791 28.4588H0L16.1526 2.239Z" fill="#27338B"/>
<path d="M28.439 2.239H35.9418V8.79395H30.1776L18.0793 28.4588H12.3079L28.439 2.239Z" fill="#27338B"/>
<path d="M36.04 13.3358H31.0457L28.2166 17.7515L30.2085 20.8107V28.4588H36.04V13.3358Z" fill="#27338B"/>
</svg>
